<svg xmlns="http://www.w3.org/2000/svg" version="1.1" xmlns:xlink="http://www.w3.org/1999/xlink" width="1000" height="1000"><style>
    #light-icon {
      display: inline;
    }
    #dark-icon {
      display: none;
    }

    @media (prefers-color-scheme: dark) {
      #light-icon {
        display: none;
      }
      #dark-icon {
        display: inline;
      }
    }
  </style><g id="light-icon"><svg xmlns="http://www.w3.org/2000/svg" version="1.1" xmlns:xlink="http://www.w3.org/1999/xlink" width="1000" height="1000"><g><g transform="matrix(0.9765625,0,0,0.9765625,0,0)"><svg xmlns="http://www.w3.org/2000/svg" version="1.1" xmlns:xlink="http://www.w3.org/1999/xlink" width="1024px" height="1024px"><svg xmlns="http://www.w3.org/2000/svg" version="1.1" width="1024px" height="1024px" style="shape-rendering:geometricPrecision; text-rendering:geometricPrecision; image-rendering:optimizeQuality; fill-rule:evenodd; clip-rule:evenodd" xmlns:xlink="http://www.w3.org/1999/xlink">
<g><path style="opacity:1" fill="#111110" d="M 502.5,226.5 C 581.88,227.085 637.046,263.751 668,336.5C 672.731,349.821 676.064,363.488 678,377.5C 681.799,414.821 685.465,452.154 689,489.5C 692.233,512.9 695.9,536.234 700,559.5C 706.531,588.758 717.197,616.425 732,642.5C 743.93,668.445 740.097,691.611 720.5,712C 707.123,722.011 692.123,725.678 675.5,723C 668.37,721.467 661.37,719.467 654.5,717C 641.382,708.472 627.049,704.472 611.5,705C 604.276,707.279 597.609,710.612 591.5,715C 579.704,726.469 567.037,736.802 553.5,746C 519.31,764.986 486.977,762.319 456.5,738C 447.536,730.705 438.87,723.038 430.5,715C 425.277,711.221 419.61,708.221 413.5,706C 407.5,705.333 401.5,705.333 395.5,706C 381.067,711.049 366.734,716.382 352.5,722C 323.486,728.78 301.653,719.28 287,693.5C 280.938,677.07 281.272,660.737 288,644.5C 296.194,629.445 303.861,614.112 311,598.5C 320.213,566.314 327.213,533.647 332,500.5C 336.565,457.155 341.232,413.822 346,370.5C 358.757,305.411 395.924,260.578 457.5,236C 472.274,231.051 487.274,227.884 502.5,226.5 Z"></path></g>
<g><path style="opacity:1" fill="#fefefe" d="M 503.5,257.5 C 574.668,258.532 620.834,292.865 642,360.5C 644.143,368.738 645.809,377.071 647,385.5C 650.655,435.355 655.989,485.021 663,534.5C 667.096,559.316 673.096,583.649 681,607.5C 685.333,618.167 689.667,628.833 694,639.5C 699.151,648.134 703.484,657.134 707,666.5C 707.47,686.02 697.97,694.187 678.5,691C 669.386,687.61 660.386,683.943 651.5,680C 628.461,670.683 605.794,671.35 583.5,682C 568.683,694.24 553.683,706.24 538.5,718C 522.322,727.99 505.655,728.99 488.5,721C 483.328,717.915 478.328,714.581 473.5,711C 460.693,699.188 447.026,688.521 432.5,679C 416.18,672.884 399.514,671.884 382.5,676C 371.432,679.356 360.766,683.689 350.5,689C 340.955,693.972 331.622,693.638 322.5,688C 315.398,681.693 312.898,673.86 315,664.5C 335.718,627.688 349.718,588.354 357,546.5C 365.308,496.81 370.974,446.81 374,396.5C 376.651,362.524 388.318,332.19 409,305.5C 434.379,277.394 465.879,261.394 503.5,257.5 Z"></path></g>
<g><path style="opacity:1" fill="#101010" d="M 450.5,357.5 C 470.518,358.346 482.351,368.679 486,388.5C 488.206,403.209 484.373,416.042 474.5,427C 455.774,439.538 440.274,436.371 428,417.5C 419.439,397.478 422.606,379.644 437.5,364C 441.657,361.255 445.99,359.088 450.5,357.5 Z"></path></g>
<g><path style="opacity:1" fill="#101010" d="M 563.5,357.5 C 578.426,357.878 588.926,364.878 595,378.5C 602.128,398.554 597.961,415.721 582.5,430C 560.655,439.27 545.488,432.77 537,410.5C 531.801,391.781 536.301,375.947 550.5,363C 554.717,360.549 559.05,358.715 563.5,357.5 Z"></path></g>
</svg></svg></g></g></svg></g><g id="dark-icon"><svg xmlns="http://www.w3.org/2000/svg" version="1.1" xmlns:xlink="http://www.w3.org/1999/xlink" width="1000" height="1000"><g><g transform="matrix(0.9765625,0,0,0.9765625,0,0)"><svg xmlns="http://www.w3.org/2000/svg" version="1.1" xmlns:xlink="http://www.w3.org/1999/xlink" width="1024px" height="1024px"><svg xmlns="http://www.w3.org/2000/svg" version="1.1" width="1024px" height="1024px" style="shape-rendering:geometricPrecision; text-rendering:geometricPrecision; image-rendering:optimizeQuality; fill-rule:evenodd; clip-rule:evenodd" xmlns:xlink="http://www.w3.org/1999/xlink">
<g><path style="opacity:1" fill="#fefef1" d="M 502.5,226.5 C 581.88,227.085 637.046,263.751 668,336.5C 672.731,349.821 676.064,363.488 678,377.5C 681.799,414.821 685.465,452.154 689,489.5C 692.233,512.9 695.9,536.234 700,559.5C 706.531,588.758 717.197,616.425 732,642.5C 743.93,668.445 740.097,691.611 720.5,712C 707.123,722.011 692.123,725.678 675.5,723C 668.37,721.467 661.37,719.467 654.5,717C 641.382,708.472 627.049,704.472 611.5,705C 604.276,707.279 597.609,710.612 591.5,715C 579.704,726.469 567.037,736.802 553.5,746C 519.31,764.986 486.977,762.319 456.5,738C 447.536,730.705 438.87,723.038 430.5,715C 425.277,711.221 419.61,708.221 413.5,706C 407.5,705.333 401.5,705.333 395.5,706C 381.067,711.049 366.734,716.382 352.5,722C 323.486,728.78 301.653,719.28 287,693.5C 280.938,677.07 281.272,660.737 288,644.5C 296.194,629.445 303.861,614.112 311,598.5C 320.213,566.314 327.213,533.647 332,500.5C 336.565,457.155 341.232,413.822 346,370.5C 358.757,305.411 395.924,260.578 457.5,236C 472.274,231.051 487.274,227.884 502.5,226.5 Z"></path></g>
<g><path style="opacity:1" fill="#101010" d="M 503.5,257.5 C 574.668,258.532 620.834,292.865 642,360.5C 644.143,368.738 645.809,377.071 647,385.5C 650.655,435.355 655.989,485.021 663,534.5C 667.096,559.316 673.096,583.649 681,607.5C 685.333,618.167 689.667,628.833 694,639.5C 699.151,648.134 703.484,657.134 707,666.5C 707.47,686.02 697.97,694.187 678.5,691C 669.386,687.61 660.386,683.943 651.5,680C 628.461,670.683 605.794,671.35 583.5,682C 568.683,694.24 553.683,706.24 538.5,718C 522.322,727.99 505.655,728.99 488.5,721C 483.328,717.915 478.328,714.581 473.5,711C 460.693,699.188 447.026,688.521 432.5,679C 416.18,672.884 399.514,671.884 382.5,676C 371.432,679.356 360.766,683.689 350.5,689C 340.955,693.972 331.622,693.638 322.5,688C 315.398,681.693 312.898,673.86 315,664.5C 335.718,627.688 349.718,588.354 357,546.5C 365.308,496.81 370.974,446.81 374,396.5C 376.651,362.524 388.318,332.19 409,305.5C 434.379,277.394 465.879,261.394 503.5,257.5 Z"></path></g>
<g><path style="opacity:1" fill="#fefefe" d="M 450.5,357.5 C 470.518,358.346 482.351,368.679 486,388.5C 488.206,403.209 484.373,416.042 474.5,427C 455.774,439.538 440.274,436.371 428,417.5C 419.439,397.478 422.606,379.644 437.5,364C 441.657,361.255 445.99,359.088 450.5,357.5 Z"></path></g>
<g><path style="opacity:1" fill="#fefefe" d="M 563.5,357.5 C 578.426,357.878 588.926,364.878 595,378.5C 602.128,398.554 597.961,415.721 582.5,430C 560.655,439.27 545.488,432.77 537,410.5C 531.801,391.781 536.301,375.947 550.5,363C 554.717,360.549 559.05,358.715 563.5,357.5 Z"></path></g>
</svg></svg></g></g></svg></g></svg>